<svg width="640" height="439" viewBox="0 0 640 439" fill="none" xmlns="http://www.w3.org/2000/svg">
<g clip-path="url(#clip0_1733_353)">
<path d="M623.18 318.633C615.834 270.792 610.381 222.713 604.025 174.745C601.734 157.436 599.366 143.021 596.778 125.647C594.82 112.413 592.492 99.2453 589.445 86.2666C587.513 78.0159 586.989 67.8244 580.211 62.7598C572.617 57.0937 548.315 50.3967 536.809 47.1138C476.942 30.0495 390.378 19.1522 367.189 16.5152C346.607 14.1719 273.396 4.89338 198.489 3.27904C182.364 2.932 165.037 3.07667 148.412 7.00809C142.968 8.28416 138.891 14.2637 135.29 22.0269C107.984 85.0407 83.163 151.828 57.5715 215.61L2.00185 354.15L0.00274121 359.078L117.485 373.566L139.219 321.884C144.416 309.532 156.984 303.069 170.395 303.304C221.381 304.166 282.258 312.33 331.519 318.822C381.658 325.422 417.211 331.181 467.076 339.778C484.024 342.703 509.946 346.873 515.439 366.413C520.412 384.081 520.174 405.196 522.558 423.546L640.157 437.992L623.201 318.691L623.18 318.633ZM338.417 242.159C231.433 228.967 147.598 194.814 151.167 165.875C154.735 136.936 244.356 124.172 351.34 137.365C458.324 150.558 542.159 184.711 538.591 213.65C535.022 242.589 445.402 255.352 338.417 242.159Z" fill="#0F0F0F"/>
</g>
<defs>
<clipPath id="clip0_1733_353">
<rect width="640" height="439" fill="white"/>
</clipPath>
</defs>
</svg>
