<svg width="68" height="51" viewBox="0 0 68 51" fill="none" xmlns="http://www.w3.org/2000/svg">
<path d="M66.8875 8.65674H41.2411C40.7907 8.65674 40.4347 8.98577 40.4617 9.37144C40.5561 10.6795 40.61 12.0334 40.61 13.4304C40.61 22.4221 38.4659 29.9305 35.6017 31.7402C34.9032 32.1825 34.0132 32.1825 33.3147 31.7402C30.4532 29.9278 28.3064 22.4221 28.3064 13.4304C28.3064 12.0334 28.3603 10.6795 28.4547 9.37144C28.4844 8.98577 28.1284 8.65674 27.6753 8.65674H1.02829C0.38641 8.65674 0.0223201 9.28514 0.407989 9.72474L5.79926 15.8037C14.5105 25.6315 23.4141 31.19 23.4141 45.1766H45.4916C45.4916 31.19 53.3945 25.6315 62.1058 15.8037L67.497 9.72474C67.8854 9.28783 67.5213 8.65674 66.8767 8.65674H66.8875Z" fill="#0F0F0F"/>
</svg>
