<svg width="60" height="51" viewBox="0 0 60 51" fill="none" xmlns="http://www.w3.org/2000/svg">
<path d="M58.0566 12.371L58.062 12.3656C57.8948 11.6644 57.6062 11.009 57.1099 10.4588C55.9529 9.17774 54.0138 8.87028 52.2365 8.66531C37.9398 7.03094 23.457 6.87182 9.12253 8.20413C7.7201 8.33358 6.2934 8.48192 4.97997 8.97277C3.21614 9.62814 1.85147 10.8013 1.82719 12.6326C1.80292 14.987 1.82719 17.3442 1.82719 19.6933V35.7285C1.83259 37.8888 1.90271 40.2325 3.32942 41.9208C4.84242 43.7143 7.44501 44.2537 9.84263 44.6178C23.3437 46.654 37.1765 46.7188 50.6992 44.8012C52.9755 44.4776 55.4594 43.9813 56.8726 42.2687C58.1483 40.7288 58.213 38.6089 58.2184 36.6482L58.2804 15.1489C58.2804 14.2346 58.2669 13.2664 58.0566 12.3737V12.371ZM30.0484 38.7222C18.5458 38.7222 9.22233 36.1978 9.22233 33.0855C9.22233 29.9732 18.5458 27.4488 30.0484 27.4488C41.5511 27.4488 50.8745 29.9732 50.8745 33.0855C50.8745 36.1978 41.5511 38.7222 30.0484 38.7222Z" fill="#0F0F0F"/>
</svg>
