<svg width="70" height="51" viewBox="0 0 70 51" fill="none" xmlns="http://www.w3.org/2000/svg">
<path d="M60.6635 33.2316C59.3797 28.6818 58.2766 24.0861 57.0873 19.512C56.6584 17.8615 56.2566 16.4924 55.7981 14.8391C55.4502 13.5796 55.0672 12.3309 54.6168 11.1092C54.331 10.3325 54.1583 9.35078 53.441 8.94084C52.6373 8.48235 50.2019 8.12365 49.0476 7.94295C43.0414 7.0044 34.5216 6.98283 32.2427 7.0044C30.2199 7.02328 23.0136 6.99901 15.7344 7.73798C14.1675 7.8971 12.49 8.11826 10.9257 8.69811C10.4133 8.8869 10.0896 9.51529 9.83344 10.3109C7.94015 16.7459 6.33274 23.517 4.61476 30.006L0.884849 44.1004L0.75 44.6021H12.3093L13.798 39.3321C14.154 38.0727 15.2948 37.2959 16.5975 37.1584C21.5491 36.6325 27.5468 36.6961 32.3986 36.7365C37.3368 36.777 40.8514 36.9103 45.7869 37.1476C47.4644 37.2285 50.0266 37.3229 50.7925 39.1514C51.4856 40.8047 51.7149 42.8544 52.1653 44.6047L63.7353 44.5993L60.6662 33.237L60.6635 33.2316ZM32.151 29.2224C21.6246 29.2224 13.0914 26.9138 13.0914 24.0658C13.0914 21.2177 21.6246 18.9091 32.151 18.9091C42.6773 18.9091 51.2105 21.2177 51.2105 24.0658C51.2105 26.9138 42.6773 29.2224 32.151 29.2224Z" fill="#0F0F0F"/>
</svg>
