<svg width="634" height="504" viewBox="0 0 634 504" fill="none" xmlns="http://www.w3.org/2000/svg">
<g clip-path="url(#clip0_1733_355)">
<path d="M631.828 205.788L631.898 205.753C632.503 198.4 631.784 191.107 628.714 184.179C621.549 168.042 603.692 158.894 587.08 151.258C453.411 89.9679 313.242 42.4402 169.771 9.89385C155.738 6.70095 141.408 3.61466 127.089 4.2204C107.873 4.99684 90.8868 12.0785 84.8277 29.818C77.1048 52.648 69.8448 75.6583 62.3748 98.5128L11.3828 254.523C4.56553 275.558 -2.2062 298.582 6.28288 319.538C15.2758 341.79 38.84 355.301 60.9708 366.455C185.635 429.129 319.79 473.675 457.237 497.95C480.376 502.028 506.081 505.085 525.253 492.91C542.541 481.977 549.911 461.559 556.199 442.5L625.169 233.525C628.076 224.63 631.024 215.167 631.82 205.814L631.828 205.788ZM275.982 373.245C164.254 336.726 81.7211 282.566 91.6182 252.286C101.515 222.006 200.104 227.045 311.831 263.564C423.559 300.082 506.092 354.242 496.195 384.522C486.298 414.802 387.71 409.763 275.982 373.245Z" fill="#0F0F0F"/>
</g>
<defs>
<clipPath id="clip0_1733_355">
<rect width="634" height="504" fill="white"/>
</clipPath>
</defs>
</svg>
