<svg width="683" height="453" viewBox="0 0 683 453" fill="none" xmlns="http://www.w3.org/2000/svg">
<g clip-path="url(#clip0_1733_356)">
<path d="M670.596 1.44152L412.508 49.5083C407.975 50.3525 405.009 54.3323 406.004 58.1647C409.407 71.1569 412.488 84.6866 415.107 98.7518C431.968 189.28 424.469 268.892 399.039 292.48C392.839 298.242 383.883 299.91 376.024 296.766C343.83 283.882 308.152 212.339 291.292 121.811C288.672 107.746 286.676 94.0144 285.174 80.6683C284.749 76.7298 280.55 74.0844 275.99 74.9336L7.83221 124.876C1.37274 126.079 -1.11294 133.088 3.59247 136.791L69.2451 187.889C175.337 270.508 275.359 309.783 301.585 450.598L523.758 409.22C497.533 268.405 566.64 197.631 635.876 82.3588L678.732 11.0517C681.821 5.92504 676.974 0.253641 670.487 1.46172L670.596 1.44152Z" fill="#0F0F0F"/>
</g>
<defs>
<clipPath id="clip0_1733_356">
<rect width="683" height="453" fill="white"/>
</clipPath>
</defs>
</svg>
